<?xml version="1.0" standalone="no"?>
<!DOCTYPE svg PUBLIC "-//W3C//DTD SVG 20010904//EN"
 "http://www.w3.org/TR/2001/REC-SVG-20010904/DTD/svg10.dtd">
<svg version="1.0" xmlns="http://www.w3.org/2000/svg"
 width="888.000000pt" height="896.000000pt" viewBox="0 0 888.000000 896.000000"
 preserveAspectRatio="xMidYMid meet">

<g transform="translate(0.000000,896.000000) scale(0.100000,-0.100000)"
fill="#000000" stroke="none">
<path d="M0 4480 l0 -4480 4440 0 4440 0 0 4480 0 4480 -4440 0 -4440 0 0
-4480z m7680 3390 c0 -5 -8 -10 -17 -10 -15 0 -16 2 -3 10 19 12 20 12 20 0z
m-135 -20 c8 -13 -42 -63 -58 -57 -24 7 -18 35 10 50 35 19 40 19 48 7z m92
-6 c-3 -3 -12 -4 -19 -1 -8 3 -5 6 6 6 11 1 17 -2 13 -5z m398 -19 c25 -20 27
-24 11 -25 -10 0 -26 8 -35 19 -9 10 -25 21 -36 24 -17 4 -16 5 5 6 14 0 39
-10 55 -24z m-885 5 c0 -5 -5 -10 -11 -10 -6 0 -25 -11 -41 -25 -30 -25 -57
-30 -61 -10 -2 12 70 53 96 54 9 1 17 -3 17 -9z m976 -50 c13 0 26 -4 29 -10
10 -16 -45 -12 -61 4 -8 8 -14 18 -14 22 0 5 5 3 12 -4 7 -7 22 -12 34 -12z
m132 -37 c-10 -2 -28 -2 -40 0 -13 2 -5 4 17 4 22 1 32 -1 23 -4z m-5842 -28
c14 -13 14 -15 0 -15 -9 0 -16 4 -16 9 0 6 -24 12 -52 14 l-53 3 53 2 c36 1
58 -3 68 -13z m5954 -35 c0 -5 -11 -10 -24 -10 -14 0 -28 5 -31 10 -4 6 7 10
24 10 17 0 31 -4 31 -10z m-6130 -25 c14 -19 14 -19 -2 -6 -10 7 -18 18 -18
24 0 6 1 8 3 6 1 -2 9 -13 17 -24z m470 4 c0 -5 14 -9 32 -9 33 0 128 -39 128
-52 0 -12 -48 -10 -55 2 -3 6 -14 10 -25 10 -10 0 -35 9 -57 19 -21 11 -46 22
-56 25 -10 3 -16 10 -13 15 7 11 46 2 46 -10z m1824 -7 c6 -5 56 -12 112 -16
137 -8 164 -14 164 -37 0 -15 -5 -17 -32 -12 -18 3 -39 10 -45 16 -8 6 -18 6
-25 0 -23 -17 -118 -15 -156 3 -29 13 -42 14 -72 5 -21 -6 -50 -11 -66 -11
-18 0 -37 -9 -47 -21 -13 -14 -28 -20 -50 -18 -18 2 -55 0 -84 -5 -50 -7 -98
1 -146 26 -27 13 -53 -14 -61 -62 -3 -22 -15 -56 -26 -76 -11 -19 -18 -39 -15
-45 6 -9 -41 -59 -56 -59 -5 0 -24 9 -44 20 -20 11 -44 20 -53 20 -10 0 -23 5
-29 11 -13 13 -71 -9 -92 -35 -14 -17 -119 -20 -138 -4 -26 21 -11 28 56 28
42 0 71 4 73 11 8 24 128 51 128 29 0 -5 20 -10 45 -10 25 0 45 5 45 10 0 6 5
10 11 10 18 0 36 25 43 61 12 56 38 98 70 109 37 13 93 13 101 0 8 -12 92 -13
99 -1 3 4 16 6 30 4 13 -3 27 0 30 6 4 6 18 11 32 11 14 0 32 7 40 15 9 9 25
12 43 9 16 -3 31 -2 34 3 8 12 67 15 81 5z m-2226 -41 c25 -21 28 -38 8 -60
-18 -21 -31 -91 -16 -91 6 0 9 -25 9 -62 -1 -35 -4 -49 -6 -33 -3 17 -8 35
-13 40 -15 20 -22 125 -9 141 10 12 9 21 -4 43 -25 42 -6 55 31 22z m4342 -9
c0 -4 -9 -13 -20 -20 -23 -14 -26 -8 -7 13 13 16 27 19 27 7z m-1791 -37 c22
-38 14 -46 -19 -18 -20 18 -28 53 -11 53 5 0 18 -16 30 -35z m-1933 8 c31 -13
35 -18 19 -21 -10 -2 -21 1 -23 7 -2 6 -12 11 -23 11 -10 0 -19 5 -19 10 0 13
1 13 46 -7z m69 -33 c3 -5 -3 -10 -15 -10 -12 0 -18 5 -15 10 3 6 10 10 15 10
5 0 12 -4 15 -10z m3550 -26 c-37 -34 -54 -30 -20 6 15 16 32 27 37 24 5 -3
-3 -17 -17 -30z m1937 -6 c23 -8 26 -13 18 -29 -14 -25 -27 -24 -68 7 -26 20
-31 29 -21 35 8 5 21 6 29 3 8 -3 27 -11 42 -16z m-5424 2 c6 0 12 -4 12 -10
0 -5 -9 -10 -20 -10 -11 0 -20 4 -20 9 0 5 -6 11 -12 14 -7 2 -4 3 7 1 11 -2
26 -4 33 -4z m1872 -5 c0 -8 -4 -15 -9 -15 -5 0 -14 7 -21 15 -10 13 -9 15 9
15 12 0 21 -6 21 -15z m-1790 -25 c0 -5 -7 -10 -15 -10 -8 0 -15 5 -15 10 0 6
7 10 15 10 8 0 15 -4 15 -10z m1842 -25 c16 -14 24 -25 18 -25 -7 0 -25 11
-42 25 -16 14 -24 25 -18 25 7 0 25 -11 42 -25z m1508 7 c0 -13 -39 -46 -46
-40 -8 9 19 48 33 48 7 0 13 -4 13 -8z m-3296 -17 c5 -13 42 -34 71 -39 6 -1
17 -6 25 -11 8 -5 63 -11 123 -13 118 -5 148 -22 38 -22 -39 0 -73 -4 -76 -10
-10 -17 -61 -11 -79 9 -9 10 -29 21 -44 24 -15 3 -45 21 -67 41 -35 30 -37 35
-19 36 12 0 24 -7 28 -15z m3136 -60 c0 -8 -4 -15 -10 -15 -5 0 -7 7 -4 15 4
8 8 15 10 15 2 0 4 -7 4 -15z m2210 -37 c0 -14 -37 -8 -51 8 -10 13 -10 17 0
24 13 8 51 -16 51 -32z m-2264 -30 c-9 -12 -16 -17 -16 -10 0 18 24 54 28 42
2 -5 -4 -20 -12 -32z m-47 -52 c-12 -14 -27 -26 -33 -26 -5 0 3 13 19 30 34
36 46 33 14 -4z m-3770 -52 c2 -10 6 -21 10 -24 17 -14 31 -55 42 -131 14 -93
20 -107 75 -184 31 -43 54 -62 114 -92 68 -35 72 -38 45 -41 -16 -2 -31 1 -33
7 -2 6 -10 11 -18 11 -32 0 -134 81 -134 107 0 7 -9 18 -20 25 -11 7 -20 20
-20 28 0 9 -6 22 -12 28 -7 7 -13 25 -14 40 -1 56 -17 142 -25 142 -5 0 -9 11
-9 25 0 14 -16 41 -40 67 -22 24 -40 46 -40 51 0 15 75 -41 79 -59z m6148 47
c10 -16 8 -19 -20 -24 -18 -3 -40 -9 -51 -13 -30 -12 -15 17 20 37 37 22 37
22 51 0z m-2417 -42 c0 -5 -13 -24 -30 -42 -16 -18 -30 -36 -30 -40 0 -10 -26
-37 -34 -37 -15 0 -2 24 34 62 22 24 40 49 40 55 0 7 5 13 10 13 6 0 10 -5 10
-11z m-855 -80 c11 -16 1 -19 -13 -3 -7 8 -8 14 -3 14 5 0 13 -5 16 -11z
m3216 -76 c-9 -16 -10 -14 -11 12 0 21 3 26 11 18 8 -8 8 -16 0 -30z m-2484
-9 c-9 -18 -16 -23 -22 -15 -4 7 1 21 11 32 23 26 29 17 11 -17z m-637 -10 c0
-8 7 -14 15 -14 8 0 15 -4 15 -10 0 -5 -11 -10 -25 -10 -27 0 -41 20 -31 46 7
18 26 10 26 -12z m603 -31 c-7 -3 -13 -11 -13 -19 0 -8 -8 -22 -17 -32 -10
-10 -24 -30 -32 -45 -10 -18 -18 -24 -25 -17 -6 6 -3 17 12 33 12 13 22 27 22
32 0 14 53 66 59 59 3 -4 0 -9 -6 -11z m2497 -18 c0 -18 -5 -25 -20 -25 -11 0
-20 -4 -20 -10 0 -5 -7 -10 -15 -10 -26 0 -16 27 18 48 17 11 33 21 35 21 1 1
2 -10 2 -24z m-2960 -19 c6 -8 24 -17 38 -19 22 -3 21 -4 -8 -6 -34 -1 -60 13
-60 31 0 13 17 9 30 -6z m2955 -96 c-10 -11 -20 -18 -23 -16 -5 6 21 35 32 36
5 0 1 -9 -9 -20z m-2818 -37 c-3 -10 -5 -4 -5 12 0 17 2 24 5 18 2 -7 2 -21 0
-30z m233 17 c0 -11 -4 -20 -10 -20 -5 0 -10 -6 -10 -14 0 -7 -7 -19 -15 -26
-20 -17 -19 0 2 45 19 39 33 46 33 15z m-1045 -10 c23 -25 14 -36 -15 -18 -18
11 -23 11 -34 -4 -7 -10 -18 -18 -25 -18 -18 0 -13 -29 11 -62 l21 -30 -24 12
c-45 23 -70 52 -58 67 6 7 18 13 25 13 8 0 14 9 14 20 0 12 10 24 23 30 33 13
42 12 62 -10z m155 -27 c0 -10 -6 -13 -16 -9 -9 3 -31 6 -50 6 -43 0 -45 18
-1 22 45 4 67 -2 67 -19z m677 -60 c-2 -16 -4 -5 -4 22 0 28 2 40 4 28 2 -13
2 -35 0 -50z m2760 0 c-3 -10 -5 -2 -5 17 0 19 2 27 5 18 2 -10 2 -26 0 -35z
m-3357 7 c0 -5 -7 -10 -15 -10 -8 0 -15 5 -15 10 0 6 7 10 15 10 8 0 15 -4 15
-10z m740 -19 c-5 -11 -15 -23 -20 -26 -14 -9 -12 19 2 33 19 19 30 14 18 -7z
m-3056 -18 c4 -5 11 -8 14 -8 12 0 91 -60 96 -72 9 -22 -22 -14 -56 15 -18 15
-42 32 -52 38 -21 11 -33 34 -18 34 5 0 12 -3 16 -7z m3008 -59 c-11 -7 -22
-26 -25 -41 -3 -15 -13 -37 -22 -48 -16 -19 -16 -18 -11 19 5 40 51 100 68 90
5 -4 1 -12 -10 -20z m2626 -1 c-5 -24 -25 -27 -31 -3 -4 15 0 20 15 20 13 0
18 -6 16 -17z m-3521 -48 c8 -19 8 -25 -1 -25 -16 0 -36 21 -36 37 0 22 24 14
37 -12z m-1906 -22 c49 -23 75 -55 63 -75 -5 -7 -10 -3 -16 11 -4 13 -17 25
-28 28 -11 3 -20 9 -20 14 0 5 -9 9 -20 9 -11 0 -20 5 -20 10 0 6 -9 10 -19
10 -21 0 -35 13 -25 23 7 7 20 2 85 -30z m503 -15 c6 -4 -1 -8 -16 -8 -30 0
-36 13 -15 34 10 12 13 11 16 -2 2 -10 8 -20 15 -24z m2163 -40 c-3 -7 -5 -2
-5 12 0 14 2 19 5 13 2 -7 2 -19 0 -25z m-2519 -34 c13 -4 22 -14 22 -25 0
-16 -8 -19 -45 -19 -51 0 -64 -25 -20 -36 38 -9 30 -23 -20 -36 -25 -7 -45
-16 -45 -20 0 -4 -5 -8 -11 -8 -6 0 -1 13 9 28 11 15 24 46 27 67 4 22 10 43
12 48 5 8 39 9 71 1z m727 -4 c4 -6 -5 -10 -20 -10 -15 0 -24 4 -20 10 3 6 12
10 20 10 8 0 17 -4 20 -10z m-257 -53 c4 -31 -5 -35 -24 -9 -19 24 -17 44 4
40 10 -2 18 -14 20 -31z m442 -31 c0 -13 -13 -50 -30 -81 -36 -68 -37 -75 -9
-75 19 0 21 -4 15 -43 -5 -35 -3 -47 11 -60 13 -11 23 -13 33 -6 11 8 12 12 3
16 -24 9 -13 24 15 21 21 -2 26 -8 24 -23 -7 -40 -27 -73 -55 -90 -17 -10 -26
-23 -23 -31 3 -8 -1 -14 -9 -14 -19 0 -19 -8 -1 -26 8 -8 28 -14 45 -14 33 0
33 -3 5 -66 -18 -41 -45 -47 -161 -39 l-93 7 0 39 c0 41 6 48 54 60 19 5 0 6
-48 3 -44 -3 -99 -12 -123 -19 -37 -11 -44 -11 -52 2 -7 13 -12 9 -25 -17 -16
-32 -15 -34 6 -57 12 -13 29 -23 39 -23 27 0 31 -15 9 -35 -22 -20 -23 -24
-11 -44 7 -11 13 -10 35 4 15 10 33 14 43 11 14 -6 15 -9 4 -15 -7 -5 -14 -20
-14 -35 -1 -14 -5 -26 -9 -26 -5 0 -8 -4 -8 -9 0 -17 -75 -85 -91 -83 -9 2
-27 -10 -41 -26 -13 -16 -33 -34 -43 -40 -19 -11 -19 -11 -1 -12 10 0 27 10
37 21 10 12 25 19 32 16 8 -3 20 3 28 14 7 11 25 19 41 19 18 0 26 4 23 13 -8
22 67 48 124 43 46 -4 51 -3 51 16 0 19 4 20 49 14 30 -4 52 -2 56 4 21 33
107 -11 125 -64 8 -26 17 -36 32 -36 19 0 20 2 6 18 -19 23 -43 100 -34 110
11 10 111 -100 136 -148 16 -32 34 -45 106 -80 47 -23 88 -48 91 -56 3 -8 14
-14 25 -14 11 0 26 -7 34 -15 9 -8 11 -15 5 -15 -10 0 -66 23 -103 41 -27 14
-28 12 -21 -37 4 -34 2 -48 -8 -55 -11 -7 -10 -11 5 -22 16 -11 18 -21 12 -55
-5 -37 -3 -44 26 -71 27 -25 30 -31 16 -36 -35 -14 -53 -1 -59 40 l-5 40 -9
-39 c-5 -26 -4 -45 4 -58 10 -15 7 -21 -21 -38 -40 -24 -85 -37 -157 -43 -46
-4 -54 -2 -58 14 -7 25 -12 24 -53 -11 -23 -20 -45 -30 -67 -30 -18 0 -42 -5
-52 -12 -15 -9 -24 -8 -45 5 -15 10 -45 17 -74 17 -34 0 -57 6 -75 20 -14 11
-31 18 -39 15 -26 -10 -114 44 -186 115 -80 78 -82 87 -45 160 8 17 13 36 10
43 -3 7 -8 5 -13 -8 -19 -49 -46 -45 -78 10 -15 25 -34 45 -44 45 -9 0 -39 3
-67 6 -42 5 -54 3 -73 -16 -15 -15 -32 -20 -55 -18 -31 3 -30 4 28 33 51 25
72 30 135 30 66 0 77 3 94 23 10 13 25 21 32 18 8 -3 14 0 14 7 0 15 104 120
111 112 3 -2 20 11 38 29 29 30 33 39 27 69 -3 18 -15 43 -26 55 -11 12 -20
28 -20 37 0 8 -9 15 -20 15 -14 0 -20 7 -20 22 0 41 -50 74 -75 49 -6 -5 -42
-12 -81 -16 -66 -6 -73 -5 -93 16 -11 13 -21 36 -21 52 0 24 3 27 20 22 18 -6
20 -2 20 34 0 31 5 43 21 52 15 8 19 8 15 0 -4 -6 0 -18 8 -27 9 -8 16 -31 16
-51 0 -33 2 -35 26 -29 14 4 39 16 54 28 34 25 53 17 44 -19 -7 -25 -6 -25 37
-18 24 4 47 10 51 14 4 3 -15 27 -43 51 -70 61 -88 100 -95 207 -3 48 -10 98
-16 110 -20 40 0 36 20 -4 11 -21 34 -48 51 -60 35 -27 41 -28 41 -9 0 21 20
30 33 17 12 -12 47 -15 47 -3 0 15 41 33 53 23 7 -5 29 -12 49 -16 l37 -7 3
44 c3 45 29 62 36 23 5 -25 42 -66 53 -59 5 3 19 -2 31 -10 23 -17 48 -6 48
20 0 8 5 14 10 14 6 0 16 12 22 28 14 32 38 62 50 62 4 0 8 -11 8 -24z m225
-71 c-3 -19 -23 -49 -50 -75 -37 -36 -45 -41 -51 -27 -4 11 3 30 19 50 35 47
67 104 68 125 0 9 5 4 10 -13 5 -16 7 -44 4 -60z m3794 69 c-10 -12 -10 -20
-2 -33 10 -16 7 -18 -26 -18 -34 0 -37 2 -33 22 4 22 33 43 61 44 11 1 11 -2
0 -15z m-2934 -52 c-17 -4 -45 15 -45 30 0 5 14 1 31 -9 22 -13 26 -19 14 -21z
m-2061 -43 c-3 -5 -10 -7 -15 -3 -5 3 -7 10 -3 15 3 5 10 7 15 3 5 -3 7 -10 3
-15z m107 -2 c4 -5 25 -8 47 -5 52 7 69 -3 42 -27 -22 -20 -26 -41 -8 -47 13
-5 -16 -55 -43 -75 -9 -7 -24 -27 -33 -45 -9 -18 -25 -46 -36 -63 -10 -16 -19
-40 -19 -52 -1 -13 -5 -23 -10 -23 -6 0 -12 -17 -14 -37 -2 -21 -3 -13 -2 17
4 70 11 99 30 120 8 9 15 22 15 29 0 6 11 23 24 38 26 28 39 93 26 128 -6 15
-21 26 -46 32 -49 11 -61 38 -13 28 19 -4 37 -12 40 -18z m2112 6 c-7 -2 -19
-2 -25 0 -7 3 -2 5 12 5 14 0 19 -2 13 -5z m-1147 -110 c-10 -10 -19 5 -10 18
6 11 8 11 12 0 2 -7 1 -15 -2 -18z m1392 5 c-4 -29 -38 -38 -38 -10 0 19 11
29 33 31 5 1 7 -9 5 -21z m2432 8 c0 -3 -4 -8 -10 -11 -5 -3 -10 -1 -10 4 0 6
5 11 10 11 6 0 10 -2 10 -4z m-147 -113 c-13 -2 -23 -11 -23 -19 0 -8 -5 -14
-11 -14 -8 0 -7 -5 1 -15 20 -24 4 -29 -42 -16 -79 24 -87 30 -43 30 22 1 54
10 70 20 17 11 39 19 50 19 17 -1 16 -1 -2 -5z m-3367 -115 c32 -36 35 -43 21
-46 -10 -2 -24 2 -32 8 -18 15 -35 5 -35 -21 0 -10 -6 -19 -13 -19 -16 0 -37
20 -37 36 0 25 31 84 44 84 8 0 31 -19 52 -42z m451 36 c-3 -3 -12 -4 -19 -1
-8 3 -5 6 6 6 11 1 17 -2 13 -5z m-37 -29 c0 -8 -7 -15 -15 -15 -8 0 -15 7
-15 15 0 8 7 15 15 15 8 0 15 -7 15 -15z m-1610 -15 c0 -10 5 -31 12 -45 12
-28 4 -45 -14 -27 -14 14 -38 -9 -38 -37 0 -34 -19 -24 -26 14 -5 26 -2 41 10
54 9 10 16 22 16 27 0 12 21 34 32 34 4 0 8 -9 8 -20z m1340 -40 c0 -7 -52
-21 -57 -16 -2 1 5 12 14 23 13 16 21 19 30 11 7 -6 13 -14 13 -18z m-315 -74
c9 -19 14 -40 10 -45 -9 -15 8 -14 29 2 16 12 17 17 6 37 -17 31 7 47 33 22
16 -17 16 -20 1 -50 -12 -25 -20 -31 -35 -27 -13 4 -19 2 -19 -9 0 -9 5 -16
11 -16 5 0 30 -19 55 -42 38 -35 42 -43 28 -51 -11 -6 -22 -3 -37 11 -12 10
-43 31 -69 46 -57 33 -64 42 -73 87 -5 27 -2 40 10 52 24 24 32 21 50 -17z
m3604 12 c0 -7 -4 -22 -9 -33 -7 -19 -9 -18 -19 8 -14 37 -14 37 9 37 11 0 20
-6 19 -12z m-4469 -18 c0 -13 -46 -24 -67 -15 -16 7 -15 9 7 15 36 11 60 11
60 0z m-282 -17 c-4 -22 -22 -20 -26 1 -2 10 3 16 13 16 10 0 15 -7 13 -17z
m9 -65 c-3 -8 -6 -5 -6 6 -1 11 2 17 5 13 3 -3 4 -12 1 -19z m2298 12 c8 -14
-16 -80 -30 -80 -6 0 -9 18 -7 45 4 43 22 60 37 35z m1773 -2 c-30 -6 -48 -16
-48 -24 0 -9 -11 -14 -27 -14 l-26 0 23 25 c19 21 32 25 74 24 l51 -1 -47 -10z
m159 6 c-3 -3 -12 -4 -19 -1 -8 3 -5 6 6 6 11 1 17 -2 13 -5z m-1987 -109 c0
-8 -7 -15 -15 -15 -13 0 -14 3 -3 15 16 18 18 18 18 0z m-930 -15 c0 -5 -2
-10 -4 -10 -3 0 -8 5 -11 10 -3 6 -1 10 4 10 6 0 11 -4 11 -10z m1119 -180
l-1 -65 -10 45 c-5 25 -13 52 -17 60 -5 9 -12 31 -16 50 l-7 35 26 -30 c23
-26 26 -38 25 -95z m-965 91 c19 -16 12 -32 -12 -25 -49 16 -72 27 -72 35 0
13 66 5 84 -10z m2280 -26 c-6 -16 -44 -21 -44 -7 0 14 12 22 31 22 12 0 16
-5 13 -15z m-1442 -116 c34 -37 48 -59 48 -80 0 -52 -19 -33 -43 42 -3 9 -18
20 -34 24 -31 7 -43 21 -43 48 0 29 22 19 72 -34z m848 20 c3 -4 19 -9 35 -12
17 -2 4 -2 -29 0 -58 4 -59 4 -54 -21 3 -14 4 -26 2 -26 -11 0 -73 64 -69 71
6 9 108 0 115 -12z m385 -29 c45 -7 47 -7 13 -9 -20 0 -39 -5 -42 -10 -3 -4
-17 -6 -31 -3 -25 4 -36 -13 -12 -21 6 -2 1 -2 -12 0 -33 6 -71 33 -71 51 0
15 -1 16 155 -8z m112 14 c-3 -3 -12 -4 -19 -1 -8 3 -5 6 6 6 11 1 17 -2 13
-5z m-2072 -43 c-6 -5 -25 10 -25 20 0 5 6 4 14 -3 8 -7 12 -15 11 -17z
m-1605 11 c0 -13 -30 -36 -82 -61 -31 -16 -52 -35 -62 -56 -20 -41 -46 -65
-46 -41 0 9 5 16 10 16 6 0 10 8 10 18 1 31 65 88 123 108 9 4 17 10 17 15 0
5 7 9 15 9 8 0 15 -4 15 -8z m1440 -12 c0 -5 7 -10 15 -10 17 0 39 -36 29 -51
-7 -11 -44 17 -44 34 0 5 -8 16 -17 23 -17 13 -17 13 0 14 9 0 17 -4 17 -10z
m605 -46 c-13 -26 -15 -27 -15 -6 0 12 5 22 10 22 6 0 11 10 11 23 1 13 3 16
6 6 2 -8 -3 -28 -12 -45z m570 46 c3 -5 -1 -10 -10 -10 -21 0 -56 -60 -49 -83
5 -14 1 -18 -13 -15 -19 3 -33 58 -14 58 6 0 11 14 11 30 0 28 3 30 34 30 19
0 38 -4 41 -10z m715 -5 c7 -8 8 -15 2 -15 -5 0 -15 7 -22 15 -7 8 -8 15 -2
15 5 0 15 -7 22 -15z m-823 -83 c-3 -30 -11 -58 -18 -62 -7 -5 -9 -21 -4 -49
6 -37 5 -41 -14 -41 -18 0 -19 -3 -11 -25 8 -22 6 -27 -13 -34 -13 -5 -39 -27
-60 -50 -20 -23 -39 -41 -42 -41 -10 0 -4 22 10 36 8 9 15 21 15 27 0 7 -15
-4 -33 -24 -78 -89 -90 -112 -65 -137 9 -9 7 -13 -5 -18 -9 -3 -17 -15 -17
-25 0 -10 -5 -19 -11 -19 -7 0 -10 -12 -7 -32 3 -18 2 -42 -3 -53 -6 -15 -8
-11 -8 20 -1 22 -4 50 -7 62 -6 21 -8 22 -34 8 -16 -8 -75 -60 -132 -114 -105
-103 -134 -119 -140 -78 -2 12 -12 26 -24 31 -13 6 -27 28 -37 60 -14 46 -14
53 0 69 9 9 22 17 30 17 7 0 13 4 13 9 0 8 26 26 109 73 40 23 143 99 184 137
16 14 37 45 48 68 18 40 40 56 102 77 9 3 21 16 26 29 5 12 16 29 25 36 9 7
16 20 16 27 0 8 4 14 9 14 5 0 11 8 13 18 6 20 67 54 81 45 5 -3 7 -31 4 -61z
m573 38 c0 -5 -2 -10 -4 -10 -3 0 -8 5 -11 10 -3 6 -1 10 4 10 6 0 11 -4 11
-10z m-1540 -52 c0 -7 -14 -27 -32 -45 -23 -24 -41 -33 -65 -33 -39 0 -44 15
-8 24 14 4 25 12 25 19 0 6 15 19 33 28 41 21 47 22 47 7z m605 2 c3 -5 2 -10
-4 -10 -5 0 -13 5 -16 10 -3 6 -2 10 4 10 5 0 13 -4 16 -10z m-165 -40 c0 -5
-5 -10 -11 -10 -5 0 -7 5 -4 10 3 6 8 10 11 10 2 0 4 -4 4 -10z m560 -16 c0
-14 -4 -23 -9 -20 -5 3 -7 15 -4 26 7 28 13 25 13 -6z m-2720 -39 c0 -8 -4
-15 -10 -15 -12 0 -14 -107 -1 -112 13 -5 24 -98 12 -98 -6 0 -11 18 -11 39 0
22 -4 43 -10 46 -11 7 -14 138 -3 148 11 12 23 8 23 -8z m1563 -55 c27 -13 33
-40 12 -47 -15 -5 -55 34 -55 53 0 9 3 14 8 12 4 -2 20 -10 35 -18z m243 -15
c-3 -9 -11 -13 -16 -10 -8 5 -7 11 1 21 14 18 24 11 15 -11z m150 13 c4 -6 2
-14 -5 -16 -6 -2 -25 -15 -40 -28 -16 -13 -36 -24 -44 -24 -8 0 -18 -6 -20
-12 -3 -7 -6 -3 -6 10 -1 12 5 22 12 22 7 0 26 14 42 30 31 32 49 37 61 18z
m-336 -33 c0 -8 -2 -15 -4 -15 -2 0 -6 7 -10 15 -3 8 -1 15 4 15 6 0 10 -7 10
-15z m-30 -54 c0 -6 -4 -13 -10 -16 -5 -3 -10 1 -10 9 0 9 5 16 10 16 6 0 10
-4 10 -9z m257 -53 c-3 -8 -6 -5 -6 6 -1 11 2 17 5 13 3 -3 4 -12 1 -19z
m-1817 -80 c0 -5 -4 -8 -10 -8 -5 0 -10 10 -10 23 0 18 2 19 10 7 5 -8 10 -18
10 -22z m1547 -15 c-3 -10 -5 -4 -5 12 0 17 2 24 5 18 2 -7 2 -21 0 -30z m890
15 c-3 -8 -6 -5 -6 6 -1 11 2 17 5 13 3 -3 4 -12 1 -19z m-2419 -69 c-1 -13
-7 -23 -13 -22 -13 3 -18 30 -11 50 10 24 29 1 24 -28z m1734 -21 c-19 -19
-14 -48 8 -48 14 0 20 -7 20 -22 l0 -21 -23 21 c-13 12 -31 22 -41 22 -11 0
-15 5 -12 13 3 6 9 20 12 29 3 9 13 19 23 21 22 5 27 -1 13 -15z m-627 -74
c17 -31 36 -59 43 -61 12 -5 18 -33 7 -33 -9 0 -55 48 -55 58 0 23 -42 46 -80
44 -34 -2 -40 0 -40 18 0 23 10 26 28 8 10 -10 17 -8 34 9 12 12 24 20 28 18
3 -2 19 -29 35 -61z m535 31 c11 -13 8 -15 -14 -15 -16 0 -26 5 -26 15 0 8 6
15 14 15 7 0 19 -7 26 -15z m-1655 -34 c3 -5 1 -12 -5 -16 -5 -3 -10 1 -10 9
0 18 6 21 15 7z m995 -21 c0 -5 -7 -10 -16 -10 -8 0 -12 5 -9 10 3 6 10 10 16
10 5 0 9 -4 9 -10z m-1008 -75 c-7 -14 -12 -33 -12 -42 0 -21 -180 -203 -200
-203 -12 1 -11 3 3 11 9 5 17 17 17 25 0 8 8 18 17 21 23 9 131 123 149 158 8
15 14 39 14 53 0 20 3 23 12 14 9 -9 9 -18 0 -37z m1212 -21 c5 -14 4 -15 -9
-4 -17 14 -19 20 -6 20 5 0 12 -7 15 -16z m1168 -37 c-6 -7 -12 -30 -15 -52
-3 -36 -4 -35 -5 13 -2 42 1 52 14 52 12 0 14 -3 6 -13z m-72 -77 c11 -21 6
-40 -11 -40 -6 0 -20 -11 -33 -25 -27 -29 -40 -33 -27 -7 5 9 16 34 25 55 18
42 30 46 46 17z m-1679 -77 c34 -20 36 -29 9 -38 -25 -8 -50 10 -50 36 0 23 4
23 41 2z m1582 -43 c-19 -22 -29 -19 -20 5 4 8 13 15 22 15 13 0 12 -3 -2 -20z
m-2433 -4 c0 -3 -4 -8 -10 -11 -5 -3 -10 -1 -10 4 0 6 5 11 10 11 6 0 10 -2
10 -4z m869 -35 c19 -12 -24 -41 -61 -41 -38 0 -35 17 5 34 40 18 39 18 56 7z
m1542 -29 c-6 -2 -11 -19 -11 -38 0 -19 -4 -34 -9 -34 -6 0 -12 -19 -14 -42
-3 -34 -4 -31 -5 19 -1 34 3 65 8 68 6 3 10 17 10 30 0 27 23 40 29 16 2 -8
-2 -17 -8 -19z m-864 6 c-3 -8 -6 -5 -6 6 -1 11 2 17 5 13 3 -3 4 -12 1 -19z
m20 -55 c-3 -10 -5 -4 -5 12 0 17 2 24 5 18 2 -7 2 -21 0 -30z m-1700 -11
c-16 -16 -27 -21 -27 -13 0 16 41 54 49 46 3 -3 -7 -18 -22 -33z m965 -9 c15
-15 28 -35 28 -44 0 -10 5 -19 12 -21 7 -3 8 -10 4 -17 -6 -9 -13 -7 -28 9
-20 21 -36 22 -83 3 -13 -4 -16 -2 -13 8 2 8 15 15 27 17 17 3 21 8 16 20 -25
59 -9 69 37 25z m1478 -8 c0 -8 -4 -15 -10 -15 -5 0 -10 -16 -10 -36 0 -35 -1
-35 -31 -29 -22 5 -34 3 -40 -6 -4 -7 -10 -11 -13 -8 -7 6 82 109 95 109 5 0
9 -7 9 -15z m-707 -57 c7 -4 5 -12 -6 -23 -16 -15 -17 -13 -16 37 1 34 4 42 6
23 3 -16 10 -33 16 -37z m468 24 c-11 -8 -21 -21 -21 -28 0 -8 -9 -14 -20 -14
-17 0 -18 3 -8 26 14 30 61 59 67 41 2 -6 -6 -17 -18 -25z m-103 1 c-2 -16 -7
-28 -13 -28 -5 0 -23 -9 -38 -19 -42 -28 -42 -13 0 32 45 49 55 51 51 15z
m-2152 -19 c-19 -19 -21 -11 -4 16 7 11 14 16 16 10 2 -5 -4 -17 -12 -26z
m2314 -49 c0 -8 -7 -15 -15 -15 -8 0 -15 7 -15 15 0 8 7 15 15 15 8 0 15 -7
15 -15z m-293 -25 c-14 -11 -30 -20 -36 -20 -5 0 -19 -10 -31 -22 -13 -14 -20
-17 -20 -8 0 22 31 50 57 50 12 0 23 5 23 10 0 6 7 10 16 10 12 0 10 -5 -9
-20z m-971 -44 c-9 -20 -20 -36 -23 -36 -13 0 -63 54 -63 67 0 17 15 17 30 -2
18 -22 37 -18 44 7 4 17 8 20 17 11 9 -9 8 -20 -5 -47z m844 -61 c-18 -19 -36
-33 -38 -31 -5 6 62 74 67 69 3 -2 -11 -19 -29 -38z m-800 14 c0 -12 8 -23 20
-26 11 -3 20 -9 20 -14 0 -5 8 -9 18 -9 23 0 59 -26 50 -36 -5 -4 -16 0 -26 9
-23 21 -51 22 -58 2 -4 -8 -10 -12 -15 -9 -5 3 -6 10 -3 16 4 6 -6 20 -21 33
-19 14 -26 27 -22 38 9 24 37 21 37 -4z m-90 -84 c-6 -8 -8 -20 -4 -27 5 -10
4 -10 -5 -2 -13 12 -5 44 11 44 6 0 5 -6 -2 -15z m320 -15 c0 -5 -6 -10 -12
-10 -7 -1 7 -10 30 -22 35 -17 46 -18 52 -8 5 9 8 5 7 -11 0 -13 3 -32 7 -41
7 -14 3 -18 -15 -18 -13 1 -35 7 -49 15 -14 8 -37 14 -52 15 -15 0 -30 5 -33
10 -4 6 -11 8 -16 4 -16 -9 1 -24 28 -24 28 0 63 -33 63 -59 1 -14 2 -14 14 2
18 23 31 21 50 -8 9 -14 25 -25 36 -25 21 0 27 15 10 25 -20 12 -10 35 15 35
30 0 32 -16 6 -49 -23 -30 -88 -40 -97 -16 -5 12 -14 14 -34 10 -39 -9 -108
50 -146 123 -12 23 17 42 62 42 23 0 46 5 49 10 3 6 10 10 16 10 5 0 9 -4 9
-10z m-442 -30 c8 0 12 -5 10 -12 -8 -24 -265 -31 -293 -8 -8 7 -13 16 -10 20
3 5 67 6 143 4 75 -2 143 -4 150 -4z m133 -51 c13 -26 6 -36 -33 -43 -18 -3
-49 -9 -68 -13 -19 -4 -98 -7 -175 -7 -119 0 -144 3 -168 19 -44 28 -31 49 32
53 30 2 59 -2 64 -7 14 -14 104 -14 112 -1 3 6 32 10 63 11 31 0 75 4 97 8 48
9 62 5 76 -20z m679 -74 c0 -8 -4 -15 -10 -15 -5 0 -7 7 -4 15 4 8 8 15 10 15
2 0 4 -7 4 -15z m-747 -22 c10 -9 -23 -43 -42 -43 -9 0 -34 -9 -56 -20 -22
-11 -45 -20 -52 -20 -8 0 -24 -6 -36 -14 -12 -8 -51 -24 -87 -36 -58 -20 -65
-20 -76 -6 -6 9 -16 16 -23 16 -6 0 -11 9 -11 20 0 25 25 26 39 3 10 -17 10
-16 11 2 0 16 11 24 48 34 26 7 57 17 70 22 13 5 27 7 31 5 8 -5 149 29 159
38 7 8 17 8 25 -1z m-1196 -9 c-3 -3 -12 -4 -19 -1 -8 3 -5 6 6 6 11 1 17 -2
13 -5z m1498 -45 c19 -17 35 -38 35 -48 0 -10 -14 -2 -40 27 -22 24 -40 45
-40 47 0 10 11 4 45 -26z m-1572 4 c-7 -2 -19 -2 -25 0 -7 3 -2 5 12 5 14 0
19 -2 13 -5z m1983 -41 c-12 -11 -36 9 -36 30 l1 23 20 -24 c11 -13 17 -26 15
-29z m-712 -3 c12 -11 -35 -29 -75 -29 -33 0 -40 23 -11 39 18 11 70 5 86 -10z
m-1397 -21 c-3 -8 -6 -5 -6 6 -1 11 2 17 5 13 3 -3 4 -12 1 -19z m1772 -34 c3
-16 1 -17 -13 -5 -19 16 -21 34 -3 29 6 -3 14 -13 16 -24z m95 -106 c52 -59
65 -85 50 -101 -6 -6 -84 69 -84 80 0 3 -9 16 -20 30 -21 27 -26 53 -11 53 5
0 34 -28 65 -62z m-278 -28 c21 0 24 -4 24 -40 0 -22 -5 -40 -10 -40 -20 0
-46 59 -47 107 0 39 1 41 4 11 4 -32 8 -38 29 -38z m164 52 c0 -5 11 -14 24
-21 13 -7 33 -32 45 -55 24 -44 36 -66 64 -108 9 -14 17 -37 17 -51 0 -25 20
-38 83 -53 23 -5 29 -3 34 15 8 32 20 25 38 -23 21 -56 17 -92 -10 -88 -11 1
-57 6 -103 12 -147 16 -207 50 -257 143 -16 29 -37 63 -47 76 -10 13 -18 35
-18 48 0 35 25 24 93 -42 31 -30 63 -55 72 -55 8 0 15 -4 15 -10 0 -5 9 -10
19 -10 11 0 23 -4 26 -10 3 -5 12 -10 18 -10 7 0 -2 13 -20 28 -34 29 -127
197 -118 213 8 11 25 12 25 1z m-1520 -72 c6 0 23 -12 37 -26 22 -22 30 -25
45 -15 28 18 31 13 9 -15 -26 -33 -26 -42 1 -71 12 -13 17 -23 11 -23 -6 0
-13 6 -16 13 -3 9 -7 9 -20 -2 -10 -7 -17 -10 -17 -5 0 5 -7 0 -16 -11 -8 -11
-19 -21 -24 -21 -6 -1 -14 -2 -20 -3 -5 0 -10 -8 -10 -16 0 -8 -7 -15 -15 -15
-9 0 -18 -7 -21 -15 -4 -8 -10 -15 -16 -15 -17 0 -40 -29 -32 -42 5 -8 2 -9
-9 -5 -11 4 -17 1 -17 -8 0 -8 -9 -15 -21 -15 -13 0 -18 -4 -13 -12 5 -7 2 -9
-8 -5 -9 3 -24 -3 -34 -14 -9 -10 -23 -19 -31 -19 -8 0 -19 -12 -26 -28 -7
-16 -18 -26 -28 -24 -8 1 -21 -8 -28 -21 -7 -14 -21 -23 -34 -23 -14 1 -26 -8
-32 -21 -5 -13 -18 -23 -27 -23 -10 0 -28 -11 -40 -25 -16 -18 -32 -25 -59
-25 -21 0 -41 -4 -44 -10 -3 -5 -17 -10 -31 -10 -13 0 -24 5 -24 10 0 6 -8 10
-18 10 -22 0 -72 -22 -72 -32 0 -12 28 -10 35 2 3 6 13 10 22 10 13 0 11 -5
-8 -26 -17 -19 -20 -28 -11 -31 10 -4 10 -8 1 -19 -17 -21 -3 -46 23 -42 19 2
23 -2 23 -22 0 -23 -4 -25 -47 -25 -25 0 -50 -4 -54 -8 -4 -4 -29 -4 -54 -1
-31 4 -50 2 -54 -5 -9 -14 -66 -15 -66 -1 0 6 -11 10 -25 10 -14 0 -28 7 -31
15 -9 21 -24 19 -24 -4 0 -11 -4 -23 -10 -26 -15 -9 -13 -105 3 -106 6 0 -1
-5 -16 -11 -61 -22 -102 32 -113 148 -6 68 -5 71 16 77 13 3 19 10 15 17 -7
11 32 49 52 50 7 0 18 9 25 20 7 11 21 20 32 20 16 0 18 5 13 34 -4 26 -2 34
7 30 8 -3 16 2 19 10 4 9 12 16 19 16 8 0 20 9 28 20 8 11 20 20 27 20 7 0 13
7 13 16 0 12 7 15 28 11 28 -6 92 11 92 25 0 4 13 8 28 8 16 0 37 9 47 20 13
14 22 17 30 10 9 -8 14 -6 19 6 5 13 14 15 46 10 38 -6 55 6 28 18 -7 3 0 3
15 -1 20 -4 32 0 46 15 9 12 30 23 45 26 38 7 116 72 116 97 0 11 6 19 13 18
30 -3 57 14 57 38 0 13 4 21 10 18 6 -4 7 1 3 11 -5 13 -2 15 18 9 22 -7 23
-7 9 10 -14 17 -13 18 3 12 9 -3 17 -3 17 2 0 5 19 18 43 29 23 11 51 29 61
41 l19 21 18 -30 c10 -16 23 -30 29 -30z m-180 41 c0 -5 9 -11 20 -13 14 -2
17 -7 11 -17 -8 -12 -15 -9 -41 12 -28 24 -29 27 -11 27 12 0 21 -4 21 -9z
m2060 -14 c29 -14 51 -34 62 -55 9 -19 24 -40 35 -47 29 -22 7 -30 -92 -33
-87 -4 -93 -3 -109 19 -22 32 -22 64 2 53 18 -8 128 -12 150 -6 16 5 -53 43
-93 51 -17 4 -31 14 -33 24 -5 24 23 22 78 -6z m-390 -29 c0 -13 -23 -5 -28
10 -2 7 2 10 12 6 9 -3 16 -11 16 -16z m627 -94 c14 -14 23 -27 21 -30 -3 -2
-17 10 -33 26 -35 36 -24 40 12 4z m-1801 -107 c1 -1 -2 -11 -7 -22 -6 -17 -8
-17 -8 -2 -1 12 -9 17 -31 17 -16 0 -30 4 -30 9 0 8 70 6 76 -2z m922 -24
c-13 -32 -47 -73 -60 -73 -4 0 -8 20 -8 44 0 43 1 45 33 49 17 2 35 5 39 5 4
1 2 -10 -4 -25z m103 -66 c1 -78 16 -60 18 21 1 29 5 41 12 36 7 -4 27 -8 46
-9 18 -1 43 -11 56 -22 19 -18 199 -113 212 -113 3 0 5 9 5 20 0 17 6 19 52
17 51 -2 53 -3 88 -54 26 -39 38 -50 45 -40 7 8 50 13 136 14 70 2 139 7 153
13 15 5 49 10 76 10 27 0 52 5 55 10 3 6 17 10 29 10 13 0 41 6 63 14 46 16
52 14 75 -36 15 -31 15 -38 3 -48 -20 -16 -146 -49 -218 -57 -32 -3 -60 -10
-63 -14 -3 -5 -61 -9 -130 -9 -142 0 -139 2 -99 -86 14 -30 25 -60 25 -67 0
-7 5 -18 11 -24 18 -18 3 -30 -48 -37 -26 -3 -57 -7 -67 -8 -15 -2 -22 7 -31
42 -7 25 -23 65 -35 90 -59 117 -57 115 -97 122 -99 17 -159 43 -237 102 -45
35 -66 44 -66 29 0 -5 5 -35 10 -68 6 -33 12 -112 14 -175 6 -167 24 -407 37
-470 21 -106 50 -225 60 -242 5 -10 9 -28 9 -40 0 -13 9 -60 21 -105 12 -45
19 -89 16 -97 -5 -11 -20 -16 -51 -16 -80 0 -90 8 -110 96 -9 44 -21 88 -26
99 -15 37 -29 99 -36 158 -4 32 -11 60 -15 63 -5 3 -9 35 -9 72 0 37 -5 87
-11 111 -5 24 -11 74 -14 112 -2 38 -7 74 -10 80 -11 17 -15 541 -5 567 8 19
13 21 30 12 17 -9 20 -21 21 -83z m995 28 c20 -17 24 -25 13 -25 -8 0 -25 11
-37 25 -28 32 -14 32 24 0z m62 -43 c2 -7 -3 -12 -12 -12 -9 0 -16 7 -16 16 0
17 22 14 28 -4z m-1388 -82 c0 -11 5 -20 10 -20 6 0 10 -13 10 -30 0 -36 -25
-60 -95 -95 -29 -14 -58 -32 -65 -40 -7 -8 -20 -15 -30 -15 -10 0 -38 -10 -62
-21 -69 -35 -77 -37 -208 -68 -166 -39 -200 -46 -230 -42 -23 2 -88 40 -118
69 -7 6 -20 12 -28 12 -18 0 -18 19 -1 26 8 3 60 9 118 13 149 13 242 31 254
51 3 6 16 10 29 10 12 0 26 4 31 9 6 5 24 11 40 13 17 2 41 11 55 20 14 9 39
22 55 29 70 28 120 52 125 59 10 14 65 39 88 40 15 0 22 -6 22 -20z m-800
-165 c0 -16 -6 -25 -15 -25 -18 0 -19 16 -2 35 16 19 17 19 17 -10z m-61 -127
l-1 -53 -10 38 c-6 20 -7 44 -4 52 10 28 16 15 15 -37z m21 -73 c0 -8 -4 -15
-10 -15 -5 0 -10 7 -10 15 0 8 5 15 10 15 6 0 10 -7 10 -15z m2751 -165 c19
-22 39 -40 45 -40 6 0 19 -9 29 -20 14 -15 15 -20 4 -20 -8 0 -41 27 -73 60
-32 33 -55 60 -49 60 5 0 25 -18 44 -40z m-2811 -114 c0 -14 -4 -28 -10 -31
-6 -4 -10 7 -10 24 0 17 5 31 10 31 6 0 10 -11 10 -24z m2975 -6 c16 -16 34
-30 39 -31 16 -1 80 -78 72 -87 -4 -4 -25 12 -46 36 -21 23 -43 42 -50 42 -6
0 -26 16 -46 35 -28 28 -31 35 -16 35 10 0 31 -13 47 -30z m-3008 -152 c-3 -7
-5 -2 -5 12 0 14 2 19 5 13 2 -7 2 -19 0 -25z m3163 2 c11 -11 27 -20 35 -20
8 0 15 -5 15 -12 0 -6 8 -20 18 -31 29 -34 -4 -12 -73 48 -22 19 -34 35 -27
35 6 0 21 -9 32 -20z m-3246 -632 c-8 -52 -10 -54 -28 -39 -11 9 -15 8 -20 -4
-3 -9 -10 -14 -15 -10 -17 10 40 92 67 95 1 0 -1 -19 -4 -42z m-448 -285 c-10
-10 -19 5 -10 18 6 11 8 11 12 0 2 -7 1 -15 -2 -18z m-26 -30 c0 -9 -32 -43
-41 -43 -4 0 -2 11 4 25 11 22 37 35 37 18z m377 -85 c-3 -7 -5 -2 -5 12 0 14
2 19 5 13 2 -7 2 -19 0 -25z"/>
<path d="M4190 5610 c0 -11 42 -52 47 -46 7 6 -20 45 -34 50 -7 3 -13 1 -13
-4z"/>
<path d="M1380 2869 c-8 -14 -9 -24 -2 -31 14 -14 32 -1 32 22 0 28 -17 33
-30 9z"/>
<path d="M1336 2780 c-3 -16 -8 -42 -11 -58 -5 -26 17 -74 28 -62 3 3 1 30 -5
60 -7 38 -7 55 1 58 13 4 15 32 2 32 -5 0 -12 -13 -15 -30z"/>
<path d="M4080 3043 c0 -13 5 -23 10 -23 13 0 13 11 0 30 -8 12 -10 11 -10 -7z"/>
<path d="M4270 2991 c0 -5 7 -11 15 -15 9 -3 15 0 15 9 0 8 -7 15 -15 15 -8 0
-15 -4 -15 -9z"/>
</g>
</svg>
